<svg id="Layer_1" data-name="Layer 1" xmlns="http://www.w3.org/2000/svg" viewBox="0 0 92.25 122.88"><defs><style>.cls-1{fill:#ef4136;fill-rule:evenodd;}</style></defs><title>pin-location</title><path class="cls-1" d="M49.1,122.34a2.75,2.75,0,0,1-3.12.1A109.7,109.7,0,0,1,19,98.35C9.15,86,3,72.33.83,59.16-1.33,45.79.69,32.94,7.34,22.49A45.14,45.14,0,0,1,17.39,11.35C26.77,3.87,37.49-.08,48.16,0c10.29.08,20.43,3.92,29.2,11.91a43,43,0,0,1,7.79,9.49c7.15,11.77,8.69,26.8,5.55,42a92.52,92.52,0,0,1-41.6,58.92Zm-3-98.58a23,23,0,1,1-22.94,23A23,23,0,0,1,46.13,23.76Z"/></svg>