<svg id="Layer_1" data-name="Layer 1" xmlns="http://www.w3.org/2000/svg" viewBox="0 0 92.53 122.88"><defs><style>.cls-1{fill-rule:evenodd;}</style></defs><title>start-location</title><path class="cls-1" d="M46.27,18.21A28.62,28.62,0,1,1,17.64,46.83,28.62,28.62,0,0,1,46.27,18.21Zm1.36,97.48A82.49,82.49,0,0,0,64,101.81,85.44,85.44,0,0,0,84.56,62.23c2.81-13.67,1.5-27-4.75-37.34a36.74,36.74,0,0,0-6.63-8.06C65.62,9.93,57,6.64,48.23,6.56,39.07,6.49,29.77,10,21.55,16.5a38.54,38.54,0,0,0-8.63,9.56C7.15,35.15,5.41,46.43,7.31,58.24c1.94,12,7.67,24.61,16.77,36a102.2,102.2,0,0,0,23.55,21.41Zm21.23-9.46a88.6,88.6,0,0,1-19.33,16,3.29,3.29,0,0,1-3.7.13,109.07,109.07,0,0,1-26.9-24c-9.8-12.3-16-26-18.1-39.1C-1.33,45.89.7,33,7.36,22.53a45.3,45.3,0,0,1,10.1-11.18C26.85,3.87,37.6-.09,48.29,0,58.6.09,68.79,3.93,77.6,12a43.62,43.62,0,0,1,7.82,9.53c7.15,11.8,8.71,26.83,5.57,42.05a92.05,92.05,0,0,1-22.13,42.69Zm-23-46.29c-.86,0-1.7,0-2.52-.08s-1.63-.12-2.42-.23-1.56-.22-2.28-.35-1.43-.29-2.11-.47v-6c.88.08,1.84.15,2.87.2s2.07.09,3.12.11,2,0,2.95,0A9.92,9.92,0,0,0,47.61,53a2.56,2.56,0,0,0,1.29-.63,1.55,1.55,0,0,0,.43-1.17v-.47a1.44,1.44,0,0,0-.61-1.28A2.34,2.34,0,0,0,47.3,49H45.23c-3,0-5.3-.67-6.87-2S36,43.44,36,40.31V39q0-4.31,2.58-6.42T46,30.48a31.48,31.48,0,0,1,3.46.18c1.08.11,2.09.26,3,.42s1.8.35,2.56.53v6c-1.2-.1-2.55-.19-4-.25s-2.86-.1-4.08-.1a10.39,10.39,0,0,0-2,.16,2.43,2.43,0,0,0-1.33.62,1.86,1.86,0,0,0-.47,1.37v.39a1.79,1.79,0,0,0,.63,1.48,3,3,0,0,0,1.91.51h2.58a9,9,0,0,1,4.54,1,6.77,6.77,0,0,1,2.73,2.81,8.71,8.71,0,0,1,.92,4V51a10.28,10.28,0,0,1-1.29,5.66,6.3,6.3,0,0,1-3.67,2.63,20.58,20.58,0,0,1-5.69.68Z"/></svg>